<?xml version="1.0" encoding="utf-8"?>
<svg id="svg2" width="750.000000pt" height="1035.000000pt" viewBox="0 0 750.000000 1035.000000" preserveAspectRatio="xMidYMid meet" xmlns="http://www.w3.org/2000/svg">
  <g transform="translate(0.000000,1035.000000) scale(0.100000,-0.100000)" fill="#000000" stroke="none" id="g6">
    <path d="M3632 9591 c-47 -16 -122 -73 -122 -92 0 -3 46 10 102 30 65 24 106 45 116 59 14 21 13 22 -14 22 -16 -1 -53 -9 -82 -19z" id="path8"/>
    <path d="M3822 9602 c-22 -14 17 -39 121 -77 87 -31 96 -33 87 -15 -15 28 -70 67 -119 85 -49 17 -70 18 -89 7z" id="path10"/>
    <path d="M3550 9324 c-63 -36 -118 -71 -122 -78 -15 -23 -7 -46 22 -61 27 -14 37 -14 97 0 109 24 152 44 168 75 28 55 12 130 -27 130 -13 0 -75 -30 -138 -66z" id="path12"/>
    <path d="M3826 9368 c-9 -36 -7 -97 4 -118 11 -21 48 -33 169 -56 91 -18 121 -13 121 19 0 36 -18 52 -130 117 -113 65 -154 74 -164 38z" id="path14"/>
    <path d="M3441 9041 c-23 -15 -27 -128 -6 -176 l16 -40 16 30 c22 41 31 174 12 186 -17 11 -21 11 -38 0z" id="path16"/>
    <path d="M3984 9018 c-49 -56 -67 -115 -62 -200 5 -72 18 -109 57 -157 l19 -25 17 55 c14 46 15 76 8 208 l-8 154 -31 -35z" id="path18"/>
    <path d="M4067 9038 c-15 -12 -16 -23 -5 -111 9 -78 14 -97 26 -95 34 7 55 138 29 187 -15 30 -28 35 -50 19z" id="path20"/>
    <path d="M3525 8925 c-8 -129 -4 -216 14 -259 l12 -29 23 34 c53 78 69 179 41 258 -15 42 -61 111 -75 111 -5 0 -11 -52 -15 -115z" id="path22"/>
    <path d="M3826 8885 l-29 -27 6 -191 c4 -140 14 -245 36 -387 16 -108 33 -203 36 -213 15 -37 63 -33 179 15 91 38 217 68 284 68 28 0 52 3 52 8 0 4 -19 20 -42 36 -23 17 -118 91 -212 166 -240 193 -266 232 -275 429 l-6 123 -29 -27z" id="path24"/>
    <path d="M3685 8793 c0 -101 -2 -113 -32 -175 -17 -37 -53 -90 -79 -118 -52 -56 -251 -220 -352 -291 l-63 -44 98 -16 c55 -9 146 -34 208 -58 138 -52 176 -59 195 -35 9 9 18 50 21 93 4 42 16 130 28 196 26 145 47 413 37 478 -7 46 -27 77 -49 77 -9 0 -12 -31 -12 -107z" id="path26"/>
    <path d="M 2836 8094 C 2753 8079 2737 8073 2761 8067 C 2898 8029 2936 8020 2973 8020 C 3035 8020 3114 7978 3149 7927 C 3164 7904 3208 7822 3246 7745 C 3283 7668 3332 7574 3354 7535 C 3427 7406 3625 7180 3664 7180 C 3686 7180 3696 7208 3694 7260 C 3694 7285 3690 7406 3686 7530 C 3675 7868 3674 7876 3649 7917 C 3625 7955 3548 7997 3425 8038 C 3247 8097 2990 8121 2836 8094 Z" id="path28" style="fill: rgb(255, 153, 0);"/>
    <path d="M2694 7981 c-143 -65 -237 -316 -191 -511 24 -100 24 -100 103 -13 213 235 399 466 391 487 -3 8 -31 23 -62 35 -73 27 -183 28 -241 2z" id="path32"/>
    <path d="M4612 7979 c-29 -12 -56 -27 -59 -35 -6 -16 114 -171 314 -404 103 -121 139 -157 149 -149 20 16 37 107 37 189 -1 181 -84 350 -197 401 -57 26 -173 25 -244 -2z" id="path34"/>
    <path d="M 4471 7804 C 4458 7795 4437 7762 4423 7731 C 4409 7700 4385 7648 4370 7615 C 4322 7511 4280 7408 4280 7394 C 4280 7373 4348 7377 4485 7406 C 4551 7420 4636 7437 4675 7443 C 4723 7452 4746 7460 4748 7471 C 4749 7479 4737 7522 4720 7566 C 4676 7681 4561 7820 4509 7820 C 4501 7820 4484 7813 4471 7804 Z" id="path38" style="fill: rgb(216, 108, 255);"/>
    <path d="M2502 7259 c-9 -17 -27 -47 -40 -66 -13 -20 -27 -56 -32 -82 -5 -25 -19 -86 -30 -136 -22 -96 -40 -394 -22 -365 5 8 24 85 42 170 17 85 42 202 55 260 37 165 53 250 48 250 -2 0 -12 -14 -21 -31z" id="path48"/>
    <path d="M5020 7279 c0 -5 6 -31 14 -57 7 -26 18 -72 24 -102 6 -30 27 -129 46 -220 19 -91 40 -196 47 -235 l14 -70 7 85 c9 104 3 173 -27 315 -13 61 -27 125 -30 142 -4 18 -10 35 -15 38 -4 3 -22 30 -39 60 -31 54 -41 65 -41 44z" id="path50"/>
    <path d="M2506 7010 c-9 -23 -56 -358 -56 -396 0 -27 5 -37 24 -46 54 -24 56 -17 56 214 0 194 -8 271 -24 228z" id="path52"/>
    <path d="M5026 7004 c-3 -11 -6 -108 -8 -216 -3 -169 -1 -200 13 -213 14 -14 18 -14 43 6 24 19 26 26 21 63 -3 22 -7 64 -10 91 -11 108 -37 270 -45 279 -4 4 -11 0 -14 -10z" id="path54"/>
    <path d="M2478 6451 c-54 -47 -91 -132 -96 -223 -3 -48 -1 -78 5 -78 24 0 147 310 130 327 -3 2 -20 -9 -39 -26z" id="path56"/>
    <path d="M5030 6451 c0 -35 40 -145 84 -230 41 -81 43 -83 49 -53 15 73 -32 219 -88 275 -33 32 -45 34 -45 8z" id="path58"/>
    <path d="M5290 6412 c0 -4 21 -66 46 -137 95 -270 165 -562 198 -823 9 -68 16 -131 16 -139 0 -21 64 -11 91 13 26 24 24 45 -16 165 -20 57 -74 230 -120 384 -100 335 -120 391 -169 478 -35 63 -46 77 -46 59z" id="path60"/>
    <path d="M2216 6378 c-18 -27 -92 -217 -147 -378 -57 -163 -189 -608 -189 -636 0 -28 44 -64 80 -64 l26 0 18 143 c32 259 103 567 195 840 21 64 38 117 35 117 -2 0 -10 -10 -18 -22z" id="path62"/>
    <path d="M4867 6286 c58 -196 286 -627 400 -754 l42 -47 -40 120 c-22 66 -55 177 -74 246 -19 70 -57 180 -86 245 -28 66 -60 141 -72 167 -14 33 -25 46 -34 42 -46 -17 -65 -16 -107 8 l-44 25 15 -52z" id="path64"/>
    <path d="M2656 6314 c-28 -20 -81 -28 -105 -15 -19 11 -24 5 -65 -76 -38 -76 -147 -392 -230 -663 -29 -97 -32 -99 77 53 126 177 254 424 321 620 30 87 30 102 2 81z" id="path66"/>
    <path d="M3080 6294 c0 -16 -5 -120 -11 -232 -6 -112 -9 -205 -6 -209 3 -3 38 2 76 12 48 11 72 23 76 34 8 26 -37 191 -84 311 -23 57 -44 106 -46 109 -3 2 -5 -9 -5 -25z" id="path72"/>
    <path d="M4442 6289 c-74 -189 -126 -366 -116 -394 5 -11 112 -45 145 -45 12 0 6 233 -10 404 l-6 68 -13 -33z" id="path74"/>
    <path d="M2282 6228 c-89 -249 -157 -491 -186 -668 -19 -114 -31 -237 -23 -230 12 11 80 157 112 240 63 164 107 388 124 620 4 63 7 116 5 118 -1 2 -15 -34 -32 -80z" id="path76"/>
    <path d="M5225 6239 c8 -110 40 -318 70 -454 32 -149 74 -277 128 -385 l42 -85 3 42 c10 132 -139 726 -228 913 l-21 45 6 -76z" id="path78"/>
    <path d="M3165 5818 c-75 -16 -109 -73 -150 -251 -32 -138 -65 -401 -38 -297 4 14 24 59 44 100 60 118 167 213 299 264 25 9 56 25 70 36 l24 18 -27 39 c-47 68 -144 107 -222 91z" id="path80"/>
    <path d="M4296 5818 c-58 -12 -112 -47 -143 -91 l-27 -39 24 -18 c14 -11 45 -27 70 -36 132 -51 239 -146 299 -264 20 -41 40 -86 44 -100 27 -104 -6 159 -38 297 -26 116 -54 189 -83 216 -33 32 -94 46 -146 35z" id="path82"/>
    <path d="M3560 5432 c0 -103 60 -323 118 -437 l36 -70 8 95 c5 52 9 136 11 185 2 82 0 94 -25 137 -15 25 -45 57 -65 69 -21 13 -48 29 -60 37 -22 14 -23 13 -23 -16z" id="path88"/>
    <path d="M3909 5416 c-101 -68 -105 -76 -101 -236 2 -74 7 -162 11 -195 l8 -60 41 85 c22 47 52 123 65 170 24 83 54 266 45 275 -2 2 -33 -15 -69 -39z" id="path90"/>
    <path d="M1726 5164 c-36 -30 -70 -64 -76 -74 -12 -22 -13 -87 -2 -94 15 -9 162 173 162 199 0 14 -4 25 -9 25 -6 0 -39 -25 -75 -56z" id="path92"/>
    <path d="M5730 5192 c0 -20 22 -52 94 -135 66 -76 76 -78 76 -19 0 45 -3 49 -67 109 -68 63 -103 79 -103 45z" id="path94"/>
    <path d="M1479 5070 c-90 -59 -118 -108 -78 -133 12 -7 35 2 97 43 45 28 82 58 82 64 0 12 -22 36 -46 49 -6 4 -31 -7 -55 -23z" id="path96"/>
    <path d="M5993 5085 c-44 -31 -36 -51 43 -110 63 -47 77 -54 94 -45 35 19 26 63 -22 105 -66 56 -91 67 -115 50z" id="path98"/>
    <path d="M1771 5037 c-45 -58 -52 -87 -22 -87 14 0 26 18 46 65 16 36 26 68 23 70 -3 3 -24 -19 -47 -48z" id="path100"/>
    <path d="M1975 5020 c-26 -68 -28 -100 -5 -100 6 0 14 10 19 23 10 26 24 147 17 147 -2 0 -16 -32 -31 -70z" id="path102"/>
    <path d="M5741 5023 c30 -67 45 -86 61 -77 17 11 7 37 -34 90 -24 30 -46 54 -50 54 -4 0 6 -30 23 -67z" id="path104"/>
    <path d="M1859 5017 c-20 -41 -30 -71 -25 -83 6 -16 8 -16 22 -2 16 16 49 136 40 145 -3 3 -19 -24 -37 -60z" id="path106"/>
    <path d="M5536 5013 c9 -81 32 -118 48 -78 6 17 -34 135 -46 135 -5 0 -5 -26 -2 -57z" id="path108"/>
    <path d="M5643 5053 c3 -10 11 -41 17 -70 12 -52 36 -76 47 -47 6 17 -45 134 -60 134 -4 0 -6 -8 -4 -17z" id="path110"/>
    <path d="M1552 4838 c-18 -23 -112 -217 -112 -232 0 -21 17 -29 37 -17 10 5 44 59 76 120 48 91 57 114 47 126 -15 18 -34 19 -48 3z" id="path112"/>
    <path d="M5941 4836 c-10 -12 -3 -33 40 -117 71 -138 109 -176 109 -106 -1 40 -99 231 -121 235 -9 2 -21 -4 -28 -12z" id="path114"/>
    <path d="M1686 4778 c-7 -13 -33 -74 -56 -135 -40 -110 -45 -153 -16 -153 23 0 43 34 91 158 39 100 45 125 35 137 -18 21 -37 19 -54 -7z" id="path116"/>
    <path d="M5800 4785 c-11 -13 -4 -37 35 -141 28 -73 56 -131 68 -139 51 -35 49 23 -4 162 -23 59 -46 114 -52 121 -13 16 -32 15 -47 -3z" id="path118"/>
    <path d="M1941 4687 c-12 -57 -19 -111 -15 -121 14 -36 42 13 64 110 22 97 21 114 -9 114 -14 0 -22 -19 -40 -103z" id="path120"/>
    <path d="M5535 4780 c-9 -15 34 -202 51 -220 11 -11 16 -12 26 -2 9 9 7 34 -11 115 -21 92 -32 116 -53 117 -4 0 -10 -5 -13 -10z" id="path126"/>
    <path d="M5678 4783 c-23 -6 -23 -17 7 -123 31 -111 43 -143 58 -152 39 -25 41 17 8 143 -32 117 -44 138 -73 132z" id="path128"/>
    <path d="M1824 4769 c-3 -6 -21 -64 -39 -128 -23 -80 -30 -121 -23 -133 23 -45 47 -6 87 136 22 81 28 113 19 123 -13 16 -34 17 -44 2z" id="path130"/>
    <path d="M2926 4649 c-18 -84 -24 -233 -15 -369 5 -80 12 -154 16 -165 12 -36 53 151 60 270 5 94 3 121 -16 189 -29 105 -36 117 -45 75z" id="path134"/>
    <path d="M4582 4623 c-29 -68 -45 -168 -38 -238 10 -98 59 -289 68 -266 14 38 30 326 24 416 -11 150 -21 165 -54 88z" id="path138"/>
    <path d="M3301 1753 c-17 -9 -41 -28 -52 -42 -29 -36 -23 -108 34 -411 67 -351 94 -541 108 -735 8 -122 16 -174 26 -185 30 -32 40 10 47 212 10 278 24 462 47 633 35 250 16 371 -77 474 -55 61 -89 75 -133 54z" id="path156"/>
    <path d="M4119 1710 c-30 -33 -69 -85 -85 -117 -27 -54 -28 -65 -26 -158 1 -55 21 -263 45 -463 24 -200 39 -366 35 -368 -4 -3 -8 -49 -8 -103 0 -71 4 -102 15 -117 27 -35 41 3 49 133 19 327 75 711 142 975 28 111 30 167 9 208 -16 31 -72 70 -101 70 -10 0 -44 -27 -75 -60z" id="path158"/>
    <path d="M3223 1274 c-17 -41 -7 -335 15 -454 53 -280 55 -301 45 -358 -9 -48 -8 -57 8 -73 22 -22 39 -24 39 -5 0 57 -33 558 -41 624 -10 88 -46 272 -54 280 -2 3 -8 -4 -12 -14z" id="path160"/>
    <path d="M4287 1224 c-29 -126 -47 -257 -57 -419 -12 -191 -17 -435 -9 -435 3 0 13 6 23 13 16 12 18 23 13 78 -4 46 6 137 35 329 34 224 39 281 34 367 -7 137 -19 158 -39 67z" id="path162"/>
    <path d="M3541 469 c-20 -21 -41 -90 -41 -131 1 -20 6 -17 45 27 60 69 71 90 55 110 -17 21 -36 19 -59 -6z" id="path164"/>
    <path d="M3942 478 c-19 -19 -14 -33 34 -93 55 -67 73 -63 54 13 -17 74 -58 110 -88 80z" id="path166"/>
    <path d="M3170 420 c0 -39 80 -139 134 -167 24 -12 30 -13 37 -1 5 7 7 19 4 26 -3 8 -5 17 -5 22 0 9 -114 101 -147 119 -16 8 -23 8 -23 1z" id="path168"/>
    <path d="M4298 391 c-52 -33 -85 -76 -94 -120 -7 -35 -4 -37 34 -17 40 21 99 86 117 129 19 47 7 49 -57 8z" id="path170"/>
    <path d="M3407 302 c-22 -24 -21 -35 3 -57 41 -37 78 12 38 51 -24 24 -25 24 -41 6z" id="path172"/>
    <path d="M4092 297 c-27 -28 -27 -39 -4 -60 17 -16 20 -15 40 6 27 28 27 39 4 60 -17 16 -20 15 -40 -6z" id="path174"/>
  </g>
  <path style="fill:#d76cff" d="M 319 276.2 C 323.4 286.5 327 295.5 327 296.1 C 327 297.9 314.4 296.6 302 293.7 C 296.2 292.3 288.9 290.8 285.8 290.5 C 280.2 289.8 280 289.7 280 286.8 C 280 279.8 291.9 260.5 299.5 255.1 C 306.5 250.2 309.1 253 319 276.2 Z" id="path3514"/>
  <path style="fill:#804d00" d="M 370.5 402.1 L 371.1 413.8 C 372 430.2 372 482.1 371.2 484.3 C 370.6 485.8 369.1 484.7 362.5 477.8 C 346.6 461.1 333.5 446.4 332 443.7 C 330.7 441 330.8 440.5 333.5 435.2 C 337.4 427.6 348.6 416.8 360.7 408.7 Z" id="path3522"/>
  <path style="fill:#804d00" d="M 384.2 401.9 L 389.9 405.1 C 407 414.6 418.1 424.7 422.6 434.5 C 425.1 439.9 425.1 440.1 423.4 442.8 C 422.4 444.3 418.2 449.1 414.1 453.5 C 409.9 457.9 401.6 467 395.6 473.8 C 387.7 482.7 384.4 485.8 383.6 485 C 382.3 483.7 382.3 468.9 383.5 428.7 Z" id="path3524"/>
  <path style="fill:#ff9900" d="M 468.3 228 C 467.9 228.4 464.9 229.2 461.8 229.9 C 458.6 230.6 456 231.5 456 231.8 C 456 232.2 453.7 233.3 451 234.3 C 443.7 236.9 440.4 240.8 431.2 258.1 C 413.2 291.8 410.8 295.3 397.8 308.5 C 388.3 318.1 387.8 318.4 386.4 316.5 C 385.1 314.8 385 311.8 385.4 298 C 385.7 288.9 386.2 273.9 386.5 264.6 C 387.1 246.1 387.7 244 393.3 239.8 C 401.1 233.8 421.8 227.4 441.5 225 C 450.1 223.9 470.4 226.2 468.3 228 Z" id="path3530"/>
  <path style="fill:#ffc022" d="M 289.3 299.3 C 309.7 300.9 324.8 305.1 335.5 312 C 342.4 316.5 361.9 336 364.4 340.8 C 365.9 343.7 368.1 362 369.6 384 L 370.2 393.6 L 360.4 400 C 348.8 407.6 334.2 421.2 329.7 428.7 L 326.6 433.9 L 325.2 430.7 C 323.5 426.5 309.6 387.7 297.7 353.5 C 281.3 306.6 280.5 304.3 280.9 300.1 C 281 299 282.6 298.8 289.3 299.3 Z" id="path3532"/>
  <path style="fill:#ffc022" d="M 474 300.7 C 473.9 305.4 461.1 345 455.3 359 C 454.5 360.9 450.7 371.3 447 382 C 441.2 398.7 431.9 424.3 429.5 430.3 C 428.9 431.8 428.3 431.5 426.4 427.9 C 420.4 417.5 410.7 408.8 394.1 399 L 384.7 393.5 L 385.4 380.3 C 386.2 364 388.7 343.5 390.2 340.6 C 392.4 336.3 401.3 325.9 408 319.7 C 418.5 310 426.4 306.5 447.3 302.5 C 467.6 298.6 474 298.1 474 300.7 Z" id="path3534"/>
  <path d="M 347.4 475.9 C 347.7 476.4 348.9 482.4 350 489.1 C 351.1 495.9 352.5 504.6 353.1 508.5 C 353.7 512.3 355.1 520.2 356.1 526 C 357.1 531.8 358 538 358 539.8 C 358 547.1 352.7 552.6 338.5 560.1 C 324 567.8 318.8 571.3 311.3 578.6 C 307.7 582.1 304.6 584.9 304.4 584.8 C 303.7 584.1 298.1 558.7 297 551.1 C 293.8 530 299.3 508.5 311.7 493.9 C 316.9 487.7 322.8 483.3 332.4 478.3 C 338.4 475.1 346.2 473.9 347.4 475.9 Z" id="path3536" style="fill: rgb(0, 133, 200);"/>
  <path d="M 421.6 478.3 C 444.1 490 455.6 507.7 457.7 533.3 C 458.3 541.3 456.4 560.6 454.8 561.6 C 454.4 561.9 454 563 454 564.1 C 454 565.8 450 584 449.4 584.8 C 449.3 585 446.6 582.5 443.4 579.2 C 436.5 572.4 428.8 567 417 561 C 397.8 551.3 394.1 545.6 397 530.7 C 399 519.9 399.8 515.7 400.9 508.5 C 404.8 484 406.1 476.7 406.6 475.9 C 407.8 473.9 415.6 475.1 421.6 478.3 Z" id="path3538" style="fill: rgb(0, 133, 200);"/>
  <path d="M 343.7 567.1 C 345.6 567 346.3 586.1 345.1 603.4 C 344 618.6 342.9 627.9 339.3 653 C 338.3 660.2 337.6 671.1 337.6 682 C 337.6 701.9 338 703.7 346.5 730.6 C 349.5 740 352 749 352 750.6 C 352 753.5 349.7 758 348.7 757 C 346.9 755.1 327.3 701.3 324.7 691.1 L 321.5 678.5 L 321.5 651 C 321.5 629.3 322 619.1 323.8 602.5 C 325.1 590.9 326.4 580.5 326.6 579.4 C 327.4 576.4 331.7 572.4 337.5 569.6 C 340.3 568.2 343 567.1 343.7 567.1 Z" id="path3540" style="fill: rgb(187, 0, 255);"/>
  <path d="M 305.165 706.866 C 304.829 703.727 304.438 700.568 303.994 697.412 C 303.362 693.924 302.447 689.847 301.1 684 C 295.2 658.4 295.1 648 300.6 617 C 303.9 598.6 305.7 594.4 313.2 587.4 C 316.5 584.4 319.4 582.1 319.6 582.3 C 319.9 582.5 319.3 587.4 318.5 593.1 C 314 622.8 312.7 660.5 315.5 679 C 317.7 693.2 317.4 696.4 312.3 722.3 C 306.7 750.3 306 750.3 305.6 721.5 C 305.493 714.978 305.412 710.602 305.165 706.866 Z" id="path3542" style="fill: rgb(187, 0, 255);"/>
  <path d="M 361.5 556.2 L 364.5 556.5 L 364.8 570 C 365.3 593.1 360.9 647.9 358.1 652.7 C 357.3 654.1 357.1 654.2 357 653 C 357 652.2 356 644.3 354.9 635.5 C 353.1 622 352.8 615 352.9 590.5 L 353.1 561.5 L 355.8 558.7 C 357.8 556.6 359.2 556 361.5 556.2 Z" id="path3546" style="fill: rgb(187, 0, 255);"/>
  <path d="M 400.4 560.5 C 401.8 564.3 400.9 611.9 399 632 C 397.9 643.3 397 652.9 397 653.3 C 397 653.8 396.6 653.9 396.1 653.6 C 394 652.2 392 632.3 390.4 596.8 C 389.5 576.1 389 558.4 389.3 557.6 C 390.5 554.6 399 556.9 400.4 560.5 Z" id="path3548" style="fill: rgb(187, 0, 255);"/>
  <path d="M 353.5 661.4 C 356.7 686.1 357.4 713.7 355.3 731.4 C 354.8 736 354.6 736.2 353.4 734.5 C 350.9 731.2 346.2 714.7 344.9 705.4 C 344.3 700.5 344 693.6 344.4 690 C 344.8 685.2 348.3 649 349.1 640.5 C 349.3 637.8 352.1 650.9 353.5 661.4 Z" id="path3550" style="fill: rgb(187, 0, 255);"/>
  <path d="M 405.1 645.5 C 405.5 647.2 406.8 659.3 408 672.5 C 409.7 691.5 409.9 698 409.1 703.6 C 407.5 714.4 405.2 723.5 402.4 729.8 C 398.2 739.2 397.7 735.8 398.3 702.6 C 398.7 674.4 399.7 663.9 403.2 648 C 404.4 642.8 404.5 642.7 405.1 645.5 Z" id="path3552" style="fill: rgb(187, 0, 255);"/>
  <path d="M 415.255 703.936 C 416.061 698.473 416.494 692.895 416.581 686.743 C 416.598 674.235 414.98 658.345 412 633.3 C 408.4 602 407.6 589.7 408.5 576.5 C 408.9 570.7 409.4 566 409.7 566 C 410.8 566 423.9 574.3 425.5 576 C 426.7 577.3 427.7 582.1 429 592.2 C 432.4 618.4 433.3 634 432.7 657.1 C 432.1 686.6 431.1 690.5 414 735 C 409.5 746.8 405.6 756.7 405.4 756.9 C 405.1 757.2 404.2 756.7 403.4 755.8 C 400.8 753.2 401.6 748.2 407.4 731.7 C 411.273 720.709 413.843 712.47 415.255 703.936 Z" id="path3554" style="fill: rgb(187, 0, 255);"/>
  <path d="M 439.016 672.765 C 438.99 668.272 438.971 663.24 438.952 657.568 C 438.895 640.38 438.742 627.862 438.435 618.448 C 437.441 608.441 436.058 597.373 434.4 586.1 C 433.7 582.1 433.8 581.8 435.6 582.8 C 439.2 584.7 447.7 594.5 448.8 598 C 450.2 602.2 456.6 639.8 457.6 649 C 458.3 656.7 457.2 664.8 452.3 686.5 C 448.9 701.7 448.7 703.6 448.4 723.2 C 448.1 746.3 447 751.8 445 739.9 C 444.4 735.8 442.7 727.1 441.4 720.5 C 436.8 698.4 436.5 694.9 437.9 684.7 C 438.347 681.594 438.722 677.464 439.016 672.765 Z" id="path3556" style="fill: rgb(187, 0, 255);"/>
  <path style="fill:#dc0000" d="M 335.5 733 C 338.1 738.1 351.3 779 355 793.5 C 362.6 823.2 364.1 849.5 358.9 862.5 C 357.4 866.1 355.8 868.6 354.8 868.8 C 351.9 869.4 341.4 858.5 338 851.6 C 334.2 843.6 333.3 837.5 332.5 813.5 C 332.2 802.5 331.1 778.6 330.1 760.5 C 329.1 742.3 328.5 727.1 328.7 726.7 C 329.4 725.6 333.8 729.8 335.5 733 Z" id="path3558"/>
  <path style="fill:#dc0000" d="M 317.4 718.9 L 320.3 721.8 C 322.7 724.3 323.3 725.9 324 732.1 C 325.2 742.4 325.3 752.8 324.5 772.5 C 323.6 793.3 325 813.6 328.6 834.3 L 331.3 849.9 L 328.9 854.7 C 326.3 859.6 322.8 861.9 319.6 860.7 C 317.3 859.8 309.7 843.4 306.6 832.6 C 303.2 821.2 303.1 803.8 306 784 C 307.2 776.6 309.6 760.1 311.4 747.5 C 313.3 734.8 315.4 723.2 316.1 721.7 Z" id="path3560"/>
  <path style="fill:#dc0000" d="M 425.4 735.7 C 425 743.9 423 780.8 421 821 C 420 840.7 419 846.3 415.2 853.3 C 412.1 859 401.5 869.2 399.1 868.8 C 394.5 867.9 391.5 853.2 392.3 835.3 C 393.3 813.4 397.9 793 410.1 756.5 C 415.9 739.2 418.9 731.7 420.8 729.7 C 425.3 725 426 725.9 425.4 735.7 Z" id="path3562"/>
  <path style="fill:#dc0000" d="M 437.1 719.5 C 438.6 720.5 439.8 727.1 444.9 762.9 C 452.5 815.9 452 826.5 440.6 850.5 C 435 862.3 434.1 863.1 429.4 859.5 C 427.5 858 425.2 855.3 424.3 853.5 C 422.8 850.4 422.8 849.4 424.3 841.8 C 425.2 837.2 426.2 831.7 426.5 829.5 C 426.7 827.4 427.5 822 428.1 817.5 C 428.8 813.1 429.3 801.4 429.2 791.5 C 429.1 781.6 429.3 762.5 429.7 749 L 430.2 724.6 L 433.2 721.8 C 434.9 720.3 436.6 719.2 437.1 719.5 Z" id="path3564"/>
  <path style="fill:#009100" d="M 259.918 369.094 C 259.896 365.17 259.835 360.134 259.749 354.811 C 259.466 351.786 259.116 348.582 258.7 345.2 C 256.1 324.3 256.4 317.6 260.1 307.1 C 262.2 301.1 267 292.7 271.3 287.4 C 272.9 285.5 274.2 284 274.3 284 C 274.4 284 274.4 288.2 274.2 293.2 C 273.9 299.6 274.7 308.1 276.5 320.5 C 278.5 334.3 279 340.2 278.5 346 C 277.3 359.1 271.9 373 263.9 383.7 C 259.4 389.8 257.7 390.5 259.1 385.7 C 259.508 384.329 259.833 382.744 260.077 380.949 C 260.002 377.78 259.944 373.626 259.918 369.094 Z" id="path3566"/>
  <path style="fill:#009100" d="M 481.033 284.743 L 481.036 284.686 L 481.094 284.773 C 481.337 284.907 481.635 285.172 482 285.5 C 485.4 288.5 491.8 299.3 494.4 306.1 C 498.6 317.4 498.9 323.6 496.4 344.7 C 495.09 355.225 494.333 362.838 494.131 368.837 C 494.088 370.902 494.081 372.797 494.115 374.411 C 494.291 379.612 495.053 383.571 496.4 387.7 C 497.7 391.7 495.5 390.2 490.8 383.7 C 485.7 376.8 480.4 366.9 479.7 363 C 479.4 361.6 478.7 358.7 478.2 356.5 C 475.9 347.7 475.8 338.8 477.9 324.5 C 479.2 315.7 480 305.5 480 297.1 C 480 286.429 480 284.255 481.033 284.743 Z" id="path3568"/>
</svg>