<?xml version="1.0" encoding="utf-8"?>
<svg id="svg2" width="750.000000pt" height="1011.000000pt" viewBox="0 0 750.000000 1011.000000" preserveAspectRatio="xMidYMid meet" xmlns="http://www.w3.org/2000/svg">
  <g transform="matrix(0.1, 0, 0, -0.1, 0, 1008.57843)" fill="#000000" stroke="none" id="g6">
    <path d="M3572 9823 c-104 -44 -110 -55 -92 -158 12 -71 15 -76 34 -70 64 20 102 22 147 9 27 -8 51 -19 54 -24 3 -6 11 -10 17 -10 13 0 1 245 -13 272 -14 26 -53 21 -147 -19z" id="path10"/>
    <path d="M3796 9847 c-17 -12 -21 -34 -29 -141 -6 -69 -8 -129 -5 -132 4 -3 25 4 48 16 47 24 117 28 164 10 16 -6 30 -9 31 -8 8 11 25 104 25 137 0 33 -5 44 -32 64 -75 56 -166 81 -202 54z" id="path12"/>
    <path d="M3393 9663 c-26 -39 -25 -192 1 -248 l18 -40 23 112 c18 89 21 121 13 158 -11 52 -29 58 -55 18z" id="path14"/>
    <path d="M4060 9664 c-14 -36 -12 -96 4 -163 8 -31 17 -69 21 -86 l7 -30 13 25 c20 38 38 145 31 182 -7 39 -41 98 -56 98 -6 0 -15 -12 -20 -26z" id="path16"/>
    <path d="M3544 9574 c-48 -24 -67 -66 -71 -162 -2 -53 1 -90 8 -98 26 -32 180 -1 216 44 42 50 35 54 -87 47 -120 -8 -134 -2 -75 35 38 24 109 29 143 11 36 -19 45 -14 38 21 -9 48 -51 96 -94 108 -46 12 -41 13 -78 -6z" id="path18"/>
    <path d="M3860 9569 c-43 -25 -65 -54 -75 -98 -7 -32 -6 -34 16 -27 95 29 136 24 188 -19 16 -14 32 -25 35 -25 12 0 6 81 -8 115 -16 37 -68 75 -101 75 -11 0 -36 -10 -55 -21z" id="path20"/>
    <path d="M3797 9376 c21 -45 84 -77 153 -79 55 -2 67 5 76 50 8 42 -7 49 -139 57 l-107 7 17 -35z" id="path22"/>
    <path d="M3583 9277 c-23 -7 -44 -15 -48 -18 -8 -9 36 -107 51 -113 24 -9 64 33 64 67 0 38 -10 77 -19 76 -3 -1 -25 -6 -48 -12z" id="path24"/>
    <path d="M3856 9268 c-11 -42 -6 -67 17 -94 21 -24 26 -25 44 -14 20 13 53 69 53 90 0 7 -88 40 -106 40 -1 0 -4 -10 -8 -22z" id="path26"/>
    <path d="M3453 9233 c-31 -12 -9 -71 51 -140 24 -28 32 -29 46 -3 8 15 4 33 -19 85 -29 64 -42 73 -78 58z" id="path28"/>
    <path d="M3985 9216 c-13 -13 -29 -42 -36 -65 -11 -36 -10 -43 6 -61 10 -11 21 -20 25 -20 10 0 90 118 90 133 0 40 -50 48 -85 13z" id="path30"/>
    <path d="M3382 9148 c-38 -38 32 -217 101 -255 12 -7 25 -12 29 -13 4 0 -13 59 -38 132 -48 143 -63 165 -92 136z" id="path32"/>
    <path d="M4081 9146 c-11 -13 -91 -240 -91 -258 0 -34 85 48 111 108 26 57 38 128 27 148 -11 20 -32 21 -47 2z" id="path34"/>
    <path d="M3665 9134 c-11 -3 -30 -7 -42 -9 -23 -5 -53 -31 -53 -46 0 -5 78 -9 186 -9 200 0 217 6 138 45 -38 19 -180 31 -229 19z" id="path36"/>
    <path d="M3580 9014 c-18 -20 0 -36 64 -58 78 -25 181 -21 244 10 52 26 65 47 36 58 -9 3 -87 6 -174 6 -130 0 -160 -3 -170 -16z" id="path38"/>
    <path d="M3534 8928 c13 -67 103 -148 163 -148 l34 0 -27 48 c-37 63 -72 102 -111 118 -54 23 -67 19 -59 -18z" id="path40"/>
    <path d="M3905 8941 c-22 -10 -47 -27 -56 -37 -19 -23 -69 -110 -69 -120 0 -16 83 6 116 31 31 24 84 109 84 135 0 15 -30 12 -75 -9z" id="path42"/>
    <path d="M3455 8763 c9 -90 28 -165 66 -254 34 -81 180 -339 192 -339 4 0 7 33 7 73 0 87 -28 204 -70 291 -37 78 -179 296 -192 296 -7 0 -8 -25 -3 -67z" id="path44"/>
    <path d="M4006 8782 c-123 -168 -195 -318 -215 -449 -13 -83 -14 -163 -3 -163 11 1 114 172 165 275 25 50 55 123 67 164 21 70 39 221 27 221 -3 0 -21 -22 -41 -48z" id="path46"/>
    <path d="M3658 8713 c-21 -8 -38 -20 -38 -25 0 -8 42 -70 123 -182 8 -12 18 0 100 116 l48 69 -43 19 c-52 24 -138 25 -190 3z" id="path48"/>
    <path d="M3335 8489 c-49 -28 -128 -71 -175 -96 -47 -25 -89 -49 -94 -53 -13 -12 78 -23 143 -17 71 6 124 32 177 89 40 41 74 95 74 118 0 20 -36 8 -125 -41z" id="path50"/>
    <path d="M4047 8534 c-23 -24 89 -151 171 -193 31 -16 59 -21 114 -20 40 0 82 4 92 8 23 9 18 12 -200 130 -149 80 -165 87 -177 75z" id="path52"/>
    <path d="M3486 8460 c-14 -38 -46 -134 -46 -140 0 -12 111 -23 122 -12 6 6 -5 38 -30 88 -26 51 -42 74 -46 64z" id="path54"/>
    <path d="M3971 8391 c-23 -45 -40 -85 -37 -88 10 -10 126 9 126 21 0 7 -11 43 -24 82 l-23 69 -42 -84z" id="path56"/>
    <path d="M 2769 8225 C 2767 8223 2750 8220 2732 8217 C 2714 8214 2694 8207 2687 8202 C 2680 8196 2671 8192 2667 8192 C 2655 8192 2580 8128 2580 8118 C 2580 8113 2570 8093 2557 8072 C 2494 7969 2453 7746 2476 7631 C 2486 7581 2505 7595 2539 7678 C 2582 7781 2674 7954 2712 8005 C 2724.931 8021.735 2756.379 8055.828 2790.056 8089.234 C 2791.024 8090.185 2791.998 8091.142 2792.98 8092.104 C 2796.286 8095.343 2799.507 8098.502 2802.643 8101.582 C 2809.125 8107.869 2815.615 8114.051 2822 8120 C 2865 8161 2900 8198 2900 8202 C 2900 8206 2883 8212 2863 8215 C 2842 8218 2813 8223 2799 8225 C 2784 8227 2771 8227 2769 8225 Z" id="path58" style="fill: rgb(255, 153, 0);"/>
    <path d="M3309 8217 c-106 -30 -175 -90 -246 -212 -26 -44 -71 -120 -100 -169 -29 -50 -51 -92 -49 -94 3 -2 70 49 150 112 229 182 313 235 454 286 34 12 62 28 62 35 0 37 -186 66 -271 42z" id="path60" style="fill: rgb(216, 108, 255);"/>
    <path d="M4030 8224 c-49 -9 -110 -36 -110 -48 0 -8 28 -24 63 -36 140 -51 224 -104 453 -286 80 -63 147 -114 150 -112 2 2 -20 44 -49 94 -29 49 -74 125 -100 170 -58 100 -104 146 -182 185 -61 30 -162 45 -225 33z" id="path62" style="fill: rgb(216, 108, 255);"/>
    <path d="M4662 8220 c-29 -5 -56 -11 -60 -15 -3 -3 30 -41 74 -83 45 -42 95 -95 111 -117 31 -41 179 -313 203 -372 18 -46 37 -42 45 10 6 43 -8 191 -24 243 -37 124 -48 153 -68 186 -13 21 -23 41 -23 46 0 9 -78 77 -88 77 -4 0 -13 4 -20 8 -7 5 -25 10 -40 13 -15 3 -34 6 -42 8 -8 2 -39 0 -68 -4z" id="path64" style="fill: rgb(255, 153, 0);"/>
    <path d="M 3000 8211 C 2944 8199 2909 8176 2839 8103 C 2755 8017 2699 7939 2645 7836 C 2611 7770 2560 7632 2560 7606 C 2560 7592 2614 7602 2691 7632 C 2788 7668 2837 7709 2920 7821 C 2989 7914 3101 8133 3103 8181 C 3105 8213 3103 8215 3070 8217 C 3051 8217 3019 8215 3000 8211 Z" id="path66" style="fill: rgb(255, 153, 0);"/>
    <path d="M4394 8207 c-9 -24 12 -79 78 -206 69 -135 137 -229 209 -290 78 -67 269 -138 269 -100 0 19 -52 141 -95 225 -54 103 -110 181 -194 267 -79 82 -117 103 -199 113 -51 5 -63 4 -68 -9z" id="path68" style="fill: rgb(255, 153, 0);"/>
    <path d="M3556 8113 c-10 -3 -40 -17 -65 -31 -84 -46 -545 -358 -584 -394 l-39 -36 74 -55 c145 -108 324 -186 472 -208 100 -14 240 11 272 48 22 26 22 27 18 317 -2 160 -7 301 -9 313 -9 40 -76 62 -139 46z" id="path70" style="fill: rgb(216, 108, 255);"/>
    <path d="M3839 8106 c-15 -9 -29 -22 -32 -30 -3 -9 -6 -102 -5 -208 1 -106 0 -240 0 -298 -2 -97 0 -107 21 -132 33 -38 172 -63 273 -49 92 14 227 60 322 112 68 37 222 143 222 153 0 13 -526 369 -634 430 -60 33 -130 42 -167 22z" id="path72" style="fill: rgb(216, 108, 255);"/>
    <path d="M2677 7590 c-49 -21 -91 -40 -93 -43 -6 -5 -76 -265 -115 -426 -37 -149 -36 -239 2 -290 31 -43 62 -47 123 -17 86 42 192 208 236 368 31 115 60 269 60 322 0 44 -4 53 -40 88 -23 21 -50 38 -63 37 -12 0 -62 -17 -110 -39z" id="path76" style="fill: rgb(0, 145, 0);"/>
    <path d="M4660 7592 c-36 -35 -40 -44 -40 -88 0 -107 63 -360 115 -466 70 -141 152 -229 226 -243 30 -5 38 -2 67 28 29 30 34 42 38 103 5 56 0 92 -25 195 -39 160 -109 421 -115 426 -11 12 -189 83 -206 83 -10 0 -37 -17 -60 -38z" id="path78" style="fill: rgb(0, 145, 0);"/>
    <path d="M2491 7508 c-45 -55 -92 -212 -111 -370 -11 -88 -10 -220 3 -338 6 -55 36 -120 54 -120 17 0 10 68 -13 135 -36 104 -5 411 56 550 4 11 10 27 13 35 3 8 14 38 25 67 16 39 18 54 9 61 -8 7 -19 1 -36 -20z" id="path80" style="fill: rgb(0, 145, 0);"/>
    <path d="M4982 7527 c-9 -11 8 -68 48 -162 59 -134 91 -435 59 -549 -29 -103 -34 -140 -20 -132 18 12 50 80 56 122 30 193 10 402 -56 601 -24 74 -71 139 -87 120z" id="path82" style="fill: rgb(0, 145, 0);"/>
    <path d="M2956 7492 c-2 -4 -1 -23 3 -42 6 -30 11 -35 37 -38 17 -2 43 2 58 8 24 9 26 13 15 26 -14 16 -82 54 -98 54 -5 0 -12 -3 -15 -8z" id="path84" style="fill: rgb(128, 77, 0);"/>
    <path d="M4489 7480 c-19 -10 -41 -26 -48 -34 -11 -13 -9 -17 14 -26 36 -14 85 -13 90 3 2 6 6 25 7 42 4 37 -14 41 -63 15z" id="path86" style="fill: rgb(128, 77, 0);"/>
    <path d="M3130 7411 c0 -17 109 -111 129 -111 32 0 26 35 -11 63 -60 45 -118 69 -118 48z" id="path88" style="fill: rgb(128, 77, 0);"/>
    <path d="M4310 7394 c-60 -34 -80 -53 -80 -76 0 -33 40 -20 96 33 77 73 70 92 -16 43z" id="path90" style="fill: rgb(128, 77, 0);"/>
    <path d="M3064 7340 c12 -79 106 -250 137 -250 15 0 39 58 39 92 0 54 -19 75 -169 192 -12 9 -13 4 -7 -34z" id="path92" style="fill: rgb(128, 77, 0);"/>
    <path d="M4370 7320 c-82 -66 -99 -89 -100 -138 0 -34 24 -92 39 -92 13 0 67 72 94 127 27 53 52 135 46 152 -2 6 -38 -17 -79 -49z" id="path94" style="fill: rgb(128, 77, 0);"/>
    <path d="M2956 7334 c-3 -9 -6 -36 -6 -60 0 -50 23 -80 79 -101 29 -10 31 -10 37 12 7 27 -26 97 -64 138 -30 31 -37 33 -46 11z" id="path96" style="fill: rgb(128, 77, 0);"/>
    <path d="M3535 7336 c-146 -47 -233 -167 -206 -286 14 -61 22 -66 68 -37 65 41 132 68 205 82 90 17 107 34 114 110 5 66 -9 121 -34 133 -27 14 -103 12 -147 -2z" id="path98" style="fill: rgb(0, 133, 200);"/>
    <path d="M3826 7338 c-39 -22 -45 -173 -8 -211 11 -11 48 -24 90 -32 73 -14 140 -41 205 -82 46 -29 54 -24 68 37 27 121 -61 242 -210 287 -48 14 -120 15 -145 1z" id="path100" style="fill: rgb(0, 133, 200);"/>
    <path d="M4508 7323 c-38 -41 -71 -111 -64 -138 6 -22 8 -22 37 -12 56 21 79 51 79 101 0 47 -7 76 -19 76 -4 0 -19 -12 -33 -27z" id="path102" style="fill: rgb(128, 77, 0);"/>
    <path d="M3020 7116 c0 -57 68 -166 138 -221 53 -41 62 -36 62 38 0 80 -47 148 -121 175 -54 20 -79 23 -79 8z" id="path104" style="fill: rgb(128, 77, 0);"/>
    <path d="M4433 7116 c-91 -29 -143 -95 -143 -183 0 -74 9 -79 62 -38 70 55 138 164 138 221 0 17 -3 17 -57 0z" id="path106" style="fill: rgb(128, 77, 0);"/>
    <path d="M2945 7028 c4 -35 13 -92 22 -128 8 -36 16 -73 18 -83 9 -40 60 -118 114 -171 55 -55 59 -57 76 -40 14 14 16 31 13 85 -3 60 -8 73 -48 130 -24 35 -75 110 -112 167 -38 56 -73 102 -79 102 -7 0 -9 -20 -4 -62z" id="path108" style="fill: rgb(128, 77, 0);"/>
    <path d="M4493 7003 c-31 -49 -80 -120 -110 -159 -60 -80 -85 -160 -67 -211 33 -91 178 72 223 249 25 97 36 208 22 208 -6 0 -37 -39 -68 -87z" id="path110" style="fill: rgb(128, 77, 0);"/>
    <path d="M3545 7046 c-128 -34 -226 -158 -225 -284 1 -47 17 -82 39 -82 6 0 24 8 38 17 22 15 52 18 156 20 76 1 134 6 140 12 11 11 13 23 20 169 4 85 3 96 -17 118 -27 31 -96 44 -151 30z" id="path112" style="fill: rgb(0, 133, 200);"/>
    <path d="M3880 7048 c-62 -10 -89 -43 -85 -100 2 -24 4 -82 4 -129 1 -104 -2 -101 131 -100 70 1 110 -4 150 -18 48 -17 58 -18 76 -6 28 18 37 71 24 130 -13 58 -25 82 -67 128 -65 73 -152 109 -233 95z" id="path114" style="fill: rgb(0, 133, 200);"/>
    <path d="M2699 6873 c-25 -27 -64 -66 -85 -88 -21 -22 -64 -63 -95 -91 -31 -28 -62 -61 -69 -74 -12 -22 -11 -23 21 -16 57 11 150 82 198 151 24 35 49 66 57 69 13 5 29 66 23 85 -2 6 -25 -10 -50 -36z" id="path116" style="fill: rgb(0, 145, 0);"/>
    <path d="M4763 6883 c9 -75 142 -229 234 -273 44 -21 73 -26 73 -12 0 4 -49 57 -109 119 -60 62 -111 116 -113 120 -2 4 -23 26 -47 48 l-44 40 6 -42z" id="path118" style="fill: rgb(0, 145, 0);"/>
    <path d="M2293 6754 c-91 -106 -154 -265 -222 -559 -66 -285 -79 -316 -236 -600 l-39 -69 33 19 c25 15 85 102 252 369 261 417 289 480 289 664 0 90 -18 222 -31 222 -4 0 -25 -21 -46 -46z" id="path120" style="fill: rgb(255, 192, 34);"/>
    <path d="M5140 6692 c-19 -167 5 -306 79 -449 11 -23 60 -102 108 -177 48 -74 135 -212 193 -306 100 -163 152 -231 166 -217 4 3 -21 55 -55 115 -78 140 -105 213 -192 533 -73 268 -105 359 -163 463 -35 62 -101 146 -115 146 -5 0 -14 -49 -21 -108z" id="path122" style="fill: rgb(255, 192, 34);"/>
    <path d="M3950 6669 c-47 -4 -97 -11 -111 -17 -28 -11 -50 -57 -44 -89 2 -10 4 -68 4 -129 1 -77 5 -116 15 -129 13 -19 16 -18 108 13 69 23 112 32 161 32 61 0 68 2 84 26 22 35 21 149 -2 194 -23 44 -74 90 -101 90 -12 0 -24 3 -26 8 -1 4 -41 4 -88 1z" id="path124" style="fill: rgb(0, 133, 200);"/>
    <path d="M3428 6656 c-46 -17 -64 -34 -88 -88 -23 -50 -26 -150 -7 -188 12 -23 20 -26 106 -33 62 -5 112 -16 152 -32 106 -45 110 -40 112 148 2 159 -1 169 -60 194 -41 17 -166 16 -215 -1z" id="path126" style="fill: rgb(0, 133, 200);"/>
    <path d="M2645 6599 c-68 -36 -131 -87 -198 -159 -59 -64 -105 -135 -94 -146 9 -9 293 148 319 176 29 32 44 85 34 125 -8 30 -11 31 -61 4z" id="path128" style="fill: rgb(255, 192, 34);"/>
    <path d="M4802 6555 c3 -53 9 -70 28 -89 37 -36 320 -181 320 -164 0 25 -56 103 -116 162 -62 60 -198 156 -222 156 -11 0 -13 -14 -10 -65z" id="path130" style="fill: rgb(255, 192, 34);"/>
    <path d="M3050 6555 c-14 -17 -30 -236 -33 -460 l-2 -160 28 -30 c110 -120 172 -165 229 -168 l43 -2 3 55 c3 46 -22 360 -44 554 -10 94 -58 167 -136 207 -44 23 -71 24 -88 4z" id="path132" style="fill: rgb(128, 77, 0);"/>
    <path d="M4365 6553 c-16 -8 -44 -29 -62 -45 -59 -56 -69 -98 -98 -409 -14 -157 -25 -303 -23 -325 l3 -39 43 2 c47 2 71 17 179 111 94 81 94 79 73 447 -13 244 -20 275 -63 275 -12 -1 -35 -8 -52 -17z" id="path134" style="fill: rgb(128, 77, 0);"/>
    <path d="M2603 6358 c-21 -33 -282 -510 -380 -692 -29 -55 -52 -101 -50 -103 8 -7 196 266 284 412 82 137 128 231 158 322 28 84 21 117 -12 61z" id="path136" style="fill: rgb(255, 192, 34);"/>
    <path d="M4870 6368 c0 -19 42 -140 70 -202 53 -116 161 -289 319 -506 94 -131 92 -123 -44 125 -45 83 -100 184 -123 225 -153 283 -199 364 -210 368 -7 2 -12 -3 -12 -10z" id="path138" style="fill: rgb(255, 192, 34);"/>
    <path d="M5026 6302 c-8 -13 531 -778 541 -768 5 5 -9 31 -160 306 -114 207 -169 291 -231 354 -59 60 -142 120 -150 108z" id="path140" style="fill: rgb(255, 192, 34);"/>
    <path d="M2403 6262 c-118 -94 -162 -156 -356 -512 -156 -285 -146 -283 58 7 49 70 152 216 228 323 77 107 141 200 144 207 10 25 -26 13 -74 -25z" id="path142" style="fill: rgb(255, 192, 34);"/>
    <path d="M3355 6256 c-16 -85 14 -333 63 -531 67 -267 139 -384 224 -368 51 10 56 45 60 404 3 294 1 329 -15 374 -40 109 -42 111 -115 130 -37 9 -99 19 -139 22 l-72 6 -6 -37z" id="path144" style="fill: rgb(0, 133, 200);"/>
    <path d="M3965 6269 c-49 -10 -95 -25 -103 -32 -7 -8 -25 -47 -39 -88 l-27 -74 2 -318 c3 -353 8 -390 60 -400 59 -11 117 48 164 170 32 86 90 303 107 408 17 103 28 300 18 330 -8 22 -14 25 -50 24 -23 0 -82 -9 -132 -20z" id="path146" style="fill: rgb(0, 133, 200);"/>
    <path d="M5541 6244 c0 -11 3 -14 6 -6 3 7 2 16 -1 19 -3 4 -6 -2 -5 -13z" id="path148"/>
    <path d="M2409 6126 c-54 -64 -134 -183 -198 -296 -63 -110 -176 -348 -169 -356 2 -2 67 97 143 219 130 208 265 451 255 460 -3 2 -17 -10 -31 -27z" id="path152" style="fill: rgb(255, 192, 34);"/>
    <path d="M5060 6155 c0 -13 108 -219 157 -300 94 -154 236 -375 240 -371 5 4 -90 212 -135 296 -53 99 -129 216 -194 303 -54 71 -68 86 -68 72z" id="path154" style="fill: rgb(255, 192, 34);"/>
    <path d="M 3042 5761 C 3030 5754 3013 5699 3005 5645 C 3003 5634 2999 5605 2996 5580 C 2992 5555 2987 5522 2983 5505 C 2979 5489 2975 5468 2973 5460 C 2972 5452 2968 5429 2966 5410 C 2963 5390 2958 5361 2955 5345 C 2928 5213 2911 4691 2929 4560 C 2935 4519 2942 4456 2945 4420 C 2948 4384 2954 4321 2960 4280 C 2966 4239 2973 4180 2976 4150 C 2979 4120 2985 4079 2990 4060 C 2998 4027 3014 3953 3025 3900 C 3027 3886 3035 3855 3041 3830 C 3046 3805 3054 3773 3057 3757 C 3060 3742 3088 3666 3098 3644 C 3108 3623 3121 3594 3128 3580 L 3139 3555 L 3140 3585 C 3141 3625 3156 3600 3164 3545 C 3167 3523 3172 3492 3175 3475 C 3183 3431 3224 3316 3233 3312 C 3237 3310 3240 3302 3240 3294 C 3240 3276 3248 3276 3266 3295 C 3283 3311 3284 3391 3269 3470 C 3264 3495 3258 3535 3255 3560 C 3249 3617 3234 3716 3220 3800 C 3213 3836 3205 3888 3200 3917 C 3196 3945 3190 3972 3187 3977 C 3184 3981 3098 4335 3091 4359 C 3083 4388 3075 4399 3069 4393 C 3062 4386 3062 4341 3070 4259 C 3076 4191 3083 4113 3085 4085 C 3095 3968 3121 3762 3130 3722 C 3136 3699 3140 3670 3139 3657 C 3139 3636 3138 3636 3131 3655 C 3118 3687 3100 3768 3100 3796 C 3100 3810 3096 3829 3091 3838 C 3086 3847 3079 3882 3075 3915 C 3071 3948 3064 4007 3059 4045 C 3028 4296 3017 4677 3034 4970 C 3038 5055 3044 5127 3045 5130 C 3047 5133 3051 5178 3055 5230 C 3058 5282 3063 5339 3065 5355 C 3068 5372 3072 5413 3075 5448 C 3078 5482 3083 5538 3087 5573 C 3097 5661 3092 5753 3077 5762 C 3062 5772 3058 5772 3042 5761 Z" id="path156" style="fill: rgb(187, 0, 255);"/>
    <path d="M 4423 5762 C 4408 5753 4403 5661 4413 5573 C 4417 5538 4422 5482 4425 5448 C 4428 5413 4432 5372 4435 5355 C 4437 5339 4442 5285 4445 5235 C 4448 5186 4453 5136 4455 5125 C 4466 5071 4475 4840 4475 4625 C 4474 4406 4464 4230 4441 4045 C 4436 4007 4429 3948 4425 3915 C 4421 3882 4382 3687 4369 3655 C 4362 3636 4361 3636 4361 3657 C 4360 3670 4364 3699 4370 3722 C 4379 3762 4405 3968 4415 4085 C 4417 4113 4424 4190 4430 4257 C 4442 4395 4433 4447 4410 4363 C 4403 4337 4380 4254 4370 4225 C 4360 4196 4327 4039 4324 4020 C 4321 4001 4304 3941 4298 3907 C 4293 3873 4284 3820 4279 3790 C 4266 3715 4251 3614 4245 3560 C 4242 3535 4236 3495 4231 3470 C 4216 3389 4218 3320 4236 3293 C 4256 3262 4257 3264 4294 3370 C 4319 3445 4325 3471 4336 3545 C 4344 3600 4359 3625 4360 3585 L 4361 3555 L 4372 3580 C 4379 3594 4392 3623 4402 3644 C 4412 3666 4454 3805 4459 3830 C 4465 3855 4473 3886 4475 3900 C 4486 3953 4502 4027 4510 4060 C 4515 4079 4521 4120 4524 4150 C 4527 4180 4534 4239 4540 4280 C 4569 4493 4575 4586 4574 4830 C 4574 5065 4563 5256 4545 5345 C 4542 5361 4537 5390 4534 5410 C 4532 5429 4528 5452 4527 5460 C 4525 5468 4521 5489 4517 5505 C 4513 5522 4508 5555 4504 5580 C 4501 5605 4497 5634 4495 5645 C 4481 5746 4457 5784 4423 5762 Z" id="path158" style="fill: rgb(187, 0, 255);"/>
    <path d="M2969 5723 c-20 -22 -42 -63 -46 -83 -15 -96 -30 -371 -19 -359 7 8 88 439 84 450 -2 6 -10 3 -19 -8z" id="path160"/>
    <path d="M4513 5705 c3 -22 23 -128 44 -235 34 -174 38 -189 41 -140 3 45 -12 255 -21 310 -5 24 -34 75 -53 91 -16 13 -17 11 -11 -26z" id="path162"/>
    <path d="M 3125 5641 C 3116 5613 3120 5482 3130 5445 C 3135 5429 3142 5399 3145 5380 C 3158 5302 3162 5285 3170 5275 C 3174 5270 3183 5247 3190 5225 C 3196 5203 3210 5166 3221 5143 C 3247 5086 3275 5024 3295 4975 C 3326 4902 3381 4780 3410 4720 C 3420 4701 3433 4667 3440 4645 C 3447 4623 3462 4587 3474 4565 C 3486 4543 3502 4507 3509 4485 C 3517 4463 3569 4310 3593 4257 C 3608 4225 3645 4118 3651 4114 C 3667 4104 3656 4187 3616 4376 C 3592 4495 3506 4746 3407 4990 C 3402 5004 3393 5026 3387 5040 C 3382 5054 3374 5073 3369 5082 C 3364 5092 3335 5172 3323 5205 C 3303 5258 3243 5411 3220 5465 C 3210 5489 3197 5523 3196 5530 C 3195 5533 3189 5545 3182 5558 C 3175 5570 3154 5643 3146 5649 C 3135 5659 3130 5657 3125 5641 Z" id="path164" style="fill: rgb(187, 0, 255);"/>
    <path d="M 4352 5648 C 4345 5641 4305 5533 4304 5530 C 4303 5523 4290 5489 4280 5465 C 4257 5411 4197 5258 4177 5205 C 4165 5172 4136 5092 4131 5082 C 4126 5073 4118 5054 4113 5040 C 4107 5026 4098 5004 4092 4990 C 4087 4976 4063 4916 4041 4855 C 4018 4795 3995 4737 3990 4728 C 3984 4718 3960 4648 3957 4633 C 3950 4591 3921 4488 3911 4465 C 3906 4454 3899 4432 3895 4415 C 3892 4399 3885 4367 3879 4345 C 3849 4229 3833 4105 3849 4114 C 3855 4118 3894 4229 3910 4265 C 3927 4301 3940 4337 3940 4344 C 3940 4351 3947 4374 3955 4394 C 3963 4414 3971 4433 3971 4437 C 3972 4442 3977 4454 3983 4465 C 3989 4476 3995 4490 3996 4497 C 3997 4504 4007 4528 4018 4552 C 4029 4576 4045 4613 4054 4635 C 4063 4657 4080 4692 4091 4713 C 4102 4734 4118 4774 4126 4801 C 4134 4828 4166 4890 4174 4906 C 4182 4922 4195 4953 4205 4975 C 4229 5034 4253 5089 4277 5140 C 4289 5165 4304 5203 4310 5225 C 4317 5247 4326 5270 4330 5275 C 4338 5285 4342 5302 4355 5380 C 4358 5399 4365 5429 4370 5445 C 4381 5484 4383 5631 4372 5647 C 4366 5657 4361 5657 4352 5648 Z" id="path166" style="fill: rgb(187, 0, 255);"/>
    <path d="M3190 5619 c0 -21 65 -129 77 -129 28 0 14 59 -23 100 -37 40 -54 50 -54 29z" id="path168"/>
    <path d="M4256 5590 c-24 -27 -36 -50 -36 -70 0 -47 22 -36 58 29 50 91 40 109 -22 41z" id="path170"/>
    <path d="M3308 5482 c-20 -46 -16 -127 8 -158 29 -40 37 -39 62 5 30 53 30 121 0 148 -39 34 -57 36 -70 5z" id="path172"/>
    <path d="M4160 5502 c-38 -12 -60 -45 -60 -90 0 -42 34 -122 51 -122 15 0 49 53 55 86 6 32 -11 120 -25 128 -3 2 -13 1 -21 -2z" id="path174"/>
    <path d="M1720 5469 c-88 -18 -210 -95 -210 -134 0 -32 114 -45 183 -21 79 29 176 122 151 146 -15 14 -77 19 -124 9z" id="path176"/>
    <path d="M5685 5473 c-37 -9 -39 -21 -12 -62 48 -72 167 -120 263 -105 66 10 72 17 41 58 -50 65 -219 128 -292 109z" id="path178"/>
    <path d="M1853 5402 c-42 -57 -86 -92 -205 -161 -163 -95 -178 -128 -81 -183 93 -53 320 -79 357 -42 20 19 21 6 -10 121 -22 86 -25 110 -19 195 3 57 2 99 -4 102 -5 3 -22 -11 -38 -32z" id="path180"/>
    <path d="M5607 5434 c-3 -3 -3 -53 0 -109 5 -89 3 -117 -18 -195 -30 -118 -27 -124 73 -128 138 -5 296 44 328 102 15 27 14 28 -26 64 -23 20 -80 59 -127 85 -93 52 -174 118 -196 161 -14 26 -23 31 -34 20z" id="path182"/>
    <path d="M1963 5412 c-38 -24 -46 -291 -9 -279 14 5 57 111 64 159 10 75 -21 141 -55 120z" id="path184"/>
    <path d="M3405 5316 c-41 -105 -41 -119 2 -216 29 -65 82 -150 94 -150 21 0 139 240 139 283 0 23 -84 111 -138 146 -27 17 -51 31 -54 31 -3 0 -22 -42 -43 -94z" id="path186"/>
    <path d="M3994 5376 c-57 -38 -134 -121 -134 -143 0 -43 119 -283 139 -283 12 0 65 85 94 150 43 97 43 111 2 216 -21 52 -41 94 -44 94 -3 0 -29 -15 -57 -34z" id="path188"/>
    <path d="M5509 5400 c-24 -14 -30 -49 -19 -112 9 -60 47 -158 61 -158 4 0 13 26 19 57 17 82 -7 224 -39 223 -3 0 -13 -5 -22 -10z" id="path190"/>
    <path d="M1369 5257 c-56 -40 -74 -59 -74 -77 0 -18 7 -26 30 -32 17 -4 39 -5 50 -1 31 9 135 82 135 94 0 18 -40 69 -54 69 -7 0 -46 -24 -87 -53z" id="path192"/>
    <path d="M6016 5278 c-9 -12 -16 -28 -16 -35 0 -16 137 -113 160 -113 25 0 40 21 40 56 0 28 -7 37 -63 73 -72 46 -99 51 -121 19z" id="path194"/>
    <path d="M 3111 5270 C 3107 5270 3094.728 5178.851 3092 5166 C 3071 5133 3053 4680 3070 4619 C 3076 4600 3081 4568 3082 4547 C 3083 4526 3095 4468 3101 4449 C 3115 4401 3138 4317 3146 4283 C 3149 4268 3156 4237 3160 4215 C 3165 4193 3176 4148 3184 4115 C 3192 4082 3202 4039 3204 4020 C 3207 4001 3214 3960 3220 3930 C 3226 3900 3232 3859 3235 3840 C 3238 3821 3244 3787 3249 3765 C 3255 3743 3262 3703 3266 3675 C 3273 3621 3276 3604 3284 3550 C 3287 3531 3294 3480 3299 3438 C 3309 3345 3320 3328 3369 3332 L 3405 3335 L 3412 3605 C 3416 3754 3423 3900 3429 3930 C 3434 3960 3439 4012 3439 4044 C 3440 4077 3445 4133 3449 4169 C 3466 4297 3467 4480 3451 4515 C 3439 4541 3415 4604 3415 4610 C 3415 4613 3409 4625 3402 4638 C 3395 4650 3387 4684 3372 4713 C 3348 4758 3333 4792 3326 4820 C 3326 4823 3315 4846 3303 4870 C 3267 4946 3217 5054 3209 5075 C 3189 5129 3118 5270 3111 5270 Z" id="path196" style="fill: rgb(187, 0, 255);"/>
    <path d="M 4340 5183 C 4317 5134 4295 5086 4291 5075 C 4287 5064 4269 5026 4252 4990 C 4235 4954 4216 4906 4210 4883 C 4204 4860 4156 4752 4151 4742 C 4146 4733 4133 4705 4122 4680 C 4112 4655 4093 4613 4081 4585 C 4069 4558 4056 4524 4053 4510 C 4042 4470 4040 4241 4050 4169 C 4055 4133 4060 4077 4061 4044 C 4061 4012 4066 3960 4071 3930 C 4077 3900 4084 3754 4088 3605 L 4095 3335 L 4131 3332 C 4180 3328 4191 3345 4201 3438 C 4206 3480 4213 3531 4216 3550 C 4224 3604 4227 3621 4234 3675 C 4238 3703 4245 3743 4251 3765 C 4256 3787 4262 3821 4265 3840 C 4268 3859 4274 3900 4280 3930 C 4286 3960 4293 4001 4296 4020 C 4298 4039 4308 4082 4316 4115 C 4324 4148 4335 4193 4340 4215 C 4357 4294 4361 4313 4376 4368 C 4416 4511 4428 4577 4440 4700 C 4445 4758 4447 4830 4444 4860 C 4441 4890 4437 4933 4435 4955 C 4421 5106 4417 5138 4409 5160 C 4404 5174 4399 5204 4398 5228 C 4397 5251 4393 5270 4389 5270 C 4385 5270 4363 5231 4340 5183 Z" id="path198" style="fill: rgb(187, 0, 255);"/>
    <path d="M3669 5188 c-63 -106 -149 -289 -149 -317 0 -35 24 -130 68 -266 l29 -90 16 35 c25 57 55 188 67 285 11 98 12 336 2 373 -7 21 -9 19 -33 -20z" id="path200"/>
    <path d="M3796 5200 c-13 -69 -6 -288 14 -407 21 -121 57 -260 71 -268 14 -10 99 278 99 337 0 28 -17 73 -65 166 -35 70 -75 144 -88 166 l-24 38 -7 -32z" id="path202"/>
    <path d="M1440 5016 c-16 -25 -30 -47 -30 -50 0 -3 -16 -31 -35 -63 -21 -35 -35 -71 -35 -91 0 -30 2 -33 23 -27 30 10 28 7 102 130 l66 110 -22 18 c-30 24 -34 22 -69 -27z" id="path204"/>
    <path d="M6003 5049 c-13 -4 -23 -15 -23 -22 0 -22 119 -215 143 -232 29 -20 34 -19 41 10 5 19 -7 48 -49 123 -69 118 -82 133 -112 121z" id="path206"/>
    <path d="M1591 4983 c-5 -10 -30 -64 -55 -121 -61 -136 -62 -213 -2 -160 25 22 126 233 126 263 0 14 -29 35 -49 35 -6 0 -14 -8 -20 -17z" id="path208"/>
    <path d="M5732 4970 c-6 -11 -12 -28 -12 -38 0 -25 67 -221 81 -238 17 -21 38 -17 49 9 8 17 2 46 -30 137 -22 63 -48 122 -58 132 -17 17 -18 17 -30 -2z" id="path210"/>
    <path d="M5857 4984 c-15 -15 -5 -53 43 -158 66 -145 94 -174 120 -126 9 17 0 44 -48 153 -50 114 -62 132 -83 135 -14 2 -28 0 -32 -4z" id="path212"/>
    <path d="M1725 4958 c-69 -188 -84 -241 -75 -259 14 -26 36 -24 55 4 24 38 86 229 79 249 -6 21 -52 25 -59 6z" id="path214"/>
    <path d="M1872 4958 c-12 -15 -62 -177 -62 -201 0 -22 26 -33 44 -18 17 14 70 197 62 217 -7 17 -30 18 -44 2z" id="path216"/>
    <path d="M5587 4957 c-5 -13 27 -135 52 -199 11 -30 32 -36 49 -15 7 8 1 43 -21 117 -27 87 -36 106 -53 108 -12 2 -24 -3 -27 -11z" id="path218"/>
    <path d="M 3516 4278 C 3512 4254 3507 4215 3504 4190 C 3502 4165 3498 4132 3494 4115 C 3481 4048 3469 3861 3464 3621 C 3458 3368 3458 3366 3481 3319 C 3494 3293 3515 3266 3528 3261 C 3596 3229 3634 3269 3656 3395 C 3659 3412 3665 3449 3670 3479 C 3687 3576 3673 3819 3641 3960 C 3636 3985 3628 4019 3625 4035 C 3621 4052 3615 4074 3610 4085 C 3602 4103 3544 4303 3536 4309 C 3525 4318 3521 4312 3516 4278 Z" id="path220" style="fill: rgb(187, 0, 255);"/>
    <path d="M 3961 4307 C 3954 4297 3939 4249 3935 4230 C 3931 4211 3900 4109 3890 4085 C 3885 4074 3879 4052 3875 4035 C 3872 4019 3864 3985 3859 3960 C 3827 3819 3813 3576 3830 3479 C 3835 3449 3841 3412 3844 3395 C 3850 3357 3868 3298 3878 3284 C 3889 3267 3926 3250 3952 3250 C 3986 3251 4004 3269 4024 3323 C 4040 3366 4041 3396 4037 3618 C 4032 3854 4018 4078 4006 4110 C 4003 4118 3999 4152 3996 4185 C 3993 4218 3987 4263 3983 4284 C 3976 4319 3973 4321 3961 4307 Z" id="path222" style="fill: rgb(187, 0, 255);"/>
    <path d="M3114 3333 c3 -42 6 -141 6 -220 l0 -143 35 0 c28 0 45 -9 80 -41 35 -32 46 -38 51 -26 8 22 -14 130 -38 185 -11 26 -33 83 -48 127 -76 217 -97 247 -86 118z" id="path224"/>
    <path d="M4351 3353 c-11 -32 -34 -102 -50 -155 -17 -53 -41 -118 -55 -145 -15 -27 -26 -64 -26 -85 0 -32 3 -38 22 -38 12 0 30 8 40 17 10 9 38 19 61 22 l42 6 3 218 c1 123 -1 217 -7 217 -5 0 -18 -26 -30 -57z" id="path226"/>
    <path d="M3657 3285 c-3 -11 -11 -47 -17 -80 -18 -91 -57 -209 -107 -320 -56 -127 -71 -209 -56 -311 6 -42 15 -80 20 -85 6 -6 20 30 38 93 15 57 47 145 71 195 65 138 77 196 77 348 -1 128 -13 204 -26 160z" id="path228"/>
    <path d="M3827 3254 c-16 -130 -17 -175 -7 -244 6 -41 14 -77 19 -80 20 -12 100 -201 126 -298 18 -63 32 -99 38 -93 20 20 31 159 19 229 -13 76 -45 157 -66 165 -15 6 -89 224 -101 297 -11 71 -22 80 -28 24z" id="path230"/>
    <path d="M3350 3249 c-73 -15 -103 -96 -58 -155 36 -46 50 -54 93 -52 42 2 66 19 97 65 53 81 -25 164 -132 142z" id="path232"/>
    <path d="M4091 3252 c-37 -6 -68 -30 -82 -64 -25 -60 47 -148 121 -148 39 0 95 53 105 99 7 34 -15 85 -42 96 -32 13 -78 21 -102 17z" id="path234"/>
    <path d="M3413 2992 c-32 -8 -53 -20 -53 -28 0 -23 43 -164 50 -164 8 0 65 198 59 204 -2 2 -28 -3 -56 -12z" id="path236"/>
    <path d="M4030 2998 c0 -8 9 -31 19 -52 11 -21 23 -51 26 -67 9 -39 23 -37 31 6 3 19 12 39 19 43 7 4 15 15 17 26 2 14 -6 22 -32 31 -74 26 -80 27 -80 13z" id="path238"/>
    <path d="M4250 2891 c-45 -24 -91 -125 -124 -277 -42 -192 -51 -292 -65 -699 -6 -177 -16 -325 -26 -380 -9 -49 -18 -100 -20 -112 -2 -13 -6 -27 -10 -33 -3 -5 -8 -22 -10 -37 -6 -43 -74 -286 -85 -305 -5 -10 -10 -29 -10 -43 0 -21 5 -25 30 -25 32 0 45 16 53 65 3 17 8 37 11 45 3 8 7 26 10 40 2 14 9 44 15 66 6 23 15 62 20 85 5 24 16 71 25 105 8 34 17 72 20 85 10 47 57 244 66 279 6 19 28 112 50 205 21 94 44 190 50 215 19 75 61 282 71 340 4 30 13 87 20 125 21 134 9 244 -31 265 -24 13 -19 13 -60 -9z" id="path240" style="fill: rgb(220, 0, 0);"/>
    <path d="M3188 2850 c-38 -22 -50 -134 -29 -265 7 -38 16 -95 20 -125 10 -58 52 -265 71 -340 6 -25 29 -121 50 -215 22 -93 44 -186 50 -205 9 -35 56 -232 66 -279 3 -13 12 -51 20 -85 9 -34 20 -81 25 -105 5 -23 14 -62 20 -85 6 -22 13 -52 15 -66 3 -14 7 -32 10 -40 3 -8 8 -28 11 -45 8 -49 21 -65 53 -65 25 0 30 4 30 25 0 14 -5 33 -10 43 -11 19 -79 262 -85 305 -2 15 -7 32 -10 37 -4 6 -8 20 -10 33 -2 12 -11 63 -20 112 -10 55 -20 203 -26 380 -11 317 -14 366 -30 500 -26 212 -94 437 -142 468 -33 22 -60 27 -79 17z" id="path242" style="fill: rgb(220, 0, 0);"/>
    <path d="M3887 2673 c-46 -163 -63 -476 -32 -581 9 -29 20 -52 25 -52 16 0 41 58 56 128 18 90 18 288 -2 425 -9 62 -20 118 -24 125 -4 9 -13 -8 -23 -45z" id="path244" style="fill: rgb(220, 0, 0);"/>
    <path d="M3586 2660 c-35 -133 -47 -424 -22 -542 15 -70 40 -128 56 -128 5 0 16 23 25 52 32 108 13 438 -34 586 -16 50 -19 54 -25 32z" id="path246" style="fill: rgb(220, 0, 0);"/>
    <path d="M4353 2448 c-10 -20 -48 -177 -57 -233 -1 -11 -6 -31 -9 -45 -4 -14 -8 -38 -11 -55 -6 -46 -36 -186 -46 -220 -5 -16 -11 -43 -14 -60 -13 -80 -57 -295 -86 -425 -6 -25 -12 -54 -14 -65 -8 -41 -38 -173 -57 -254 -22 -93 -19 -131 10 -131 14 0 22 11 30 43 5 23 26 110 45 192 66 276 120 492 141 555 8 25 16 56 19 70 3 14 10 41 16 60 6 19 15 53 19 75 5 22 20 85 35 140 21 81 26 123 26 222 0 67 -3 128 -6 137 -9 23 -29 20 -41 -6z" id="path248" style="fill: rgb(220, 0, 0);"/>
    <path d="M3106 2404 c-3 -9 -6 -70 -6 -137 0 -99 5 -141 26 -222 15 -55 30 -118 35 -140 4 -22 13 -56 19 -75 6 -19 13 -46 16 -60 3 -14 11 -45 19 -70 21 -63 75 -279 141 -555 19 -82 40 -169 45 -192 8 -32 16 -43 30 -43 29 0 32 38 10 131 -19 81 -49 213 -57 254 -2 11 -8 40 -14 65 -29 130 -73 345 -86 425 -3 17 -9 44 -14 60 -10 34 -40 174 -46 220 -3 17 -7 41 -11 55 -3 14 -8 34 -9 45 -9 56 -47 213 -57 233 -12 26 -32 29 -41 6z" id="path250" style="fill: rgb(220, 0, 0);"/>
    <path d="M3931 2072 c-5 -9 -16 -52 -25 -94 -17 -82 -15 -323 5 -553 5 -60 9 -119 9 -130 0 -17 2 -17 10 -5 5 8 10 33 10 56 0 23 4 54 9 70 6 16 13 58 16 94 10 107 18 507 11 545 -7 38 -29 47 -45 17z" id="path252" style="fill: rgb(220, 0, 0);"/>
    <path d="M3524 2005 c-7 -38 1 -438 11 -545 3 -36 10 -78 16 -94 5 -16 9 -47 9 -70 0 -23 5 -48 10 -56 8 -12 10 -12 10 5 0 11 4 70 9 130 20 230 22 471 5 553 -9 42 -20 85 -25 94 -16 30 -38 21 -45 -17z" id="path254" style="fill: rgb(220, 0, 0);"/>
    <path d="M3920 940 c-11 -7 -6 -10 20 -10 26 0 31 3 20 10 -8 5 -17 10 -20 10 -3 0 -12 -5 -20 -10z" id="path256"/>
    <path d="M4052 924 c9 -9 21 -13 27 -10 20 13 11 26 -16 26 -25 0 -26 -1 -11 -16z" id="path258"/>
    <path d="M3541 886 c-13 -16 -54 -313 -46 -334 5 -15 49 -9 71 9 6 5 17 60 23 122 6 61 14 127 16 145 3 24 -2 38 -17 52 -26 24 -32 24 -47 6z" id="path260"/>
    <path d="M3913 893 c-16 -6 -16 -74 0 -215 13 -107 26 -138 56 -138 44 1 45 9 26 177 -10 87 -23 164 -28 171 -10 12 -32 15 -54 5z" id="path262"/>
    <path d="M3457 852 c-7 -9 -17 -25 -21 -36 -9 -25 -57 -259 -54 -262 2 -1 15 -5 30 -9 36 -9 42 6 62 150 9 66 19 130 21 141 6 28 -18 38 -38 16z" id="path264"/>
    <path d="M3647 855 c-9 -33 -30 -248 -26 -275 3 -19 11 -26 31 -28 24 -3 28 1 34 33 15 82 -20 333 -39 270z" id="path266"/>
    <path d="M3824 857 c-2 -7 -3 -78 -2 -157 3 -144 3 -145 27 -148 13 -2 28 1 33 6 15 15 -22 312 -39 312 -8 0 -16 -6 -19 -13z" id="path268"/>
    <path d="M4015 861 c-8 -13 23 -267 36 -292 14 -27 46 -30 57 -4 16 35 -32 253 -62 284 -16 16 -26 19 -31 12z" id="path270"/>
    <path d="M3336 705 c-36 -57 -67 -109 -68 -115 -2 -7 7 -18 18 -26 31 -22 44 -4 89 118 21 57 40 109 42 116 3 6 1 12 -5 12 -6 0 -40 -47 -76 -105z" id="path272"/>
    <path d="M4090 799 c0 -26 73 -215 90 -233 14 -15 21 -16 39 -7 26 14 26 29 1 61 -11 14 -20 28 -20 32 0 9 -99 158 -105 158 -3 0 -5 -5 -5 -11z" id="path274"/>
    <path d="M3205 496 c-18 -42 -13 -56 12 -40 32 20 39 42 21 61 -16 16 -18 15 -33 -21z" id="path276"/>
    <path d="M4254 509 c-3 -6 5 -23 20 -37 24 -24 27 -25 42 -11 14 15 13 18 -12 38 -30 24 -40 26 -50 10z" id="path278"/>
    <path d="M3280 486 c-25 -66 -9 -82 35 -37 23 25 26 33 15 46 -18 22 -39 18 -50 -9z" id="path280"/>
    <path d="M4182 497 c-9 -10 -6 -21 11 -45 24 -35 35 -39 43 -18 6 16 -22 76 -35 76 -5 0 -13 -6 -19 -13z" id="path282"/>
    <path d="M3354 464 c-19 -46 -18 -54 11 -54 14 0 25 2 25 4 0 2 7 19 15 39 14 34 14 35 -11 40 -22 4 -28 -1 -40 -29z" id="path284"/>
    <path d="M3592 484 c-17 -11 -22 -25 -22 -58 0 -48 13 -66 50 -66 23 0 28 7 43 53 25 78 23 87 -16 87 -18 0 -43 -7 -55 -16z" id="path286"/>
    <path d="M3843 494 c-18 -8 -16 -85 3 -112 9 -14 26 -22 43 -22 27 0 29 3 35 57 4 31 3 60 -2 65 -10 10 -64 19 -79 12z" id="path288"/>
    <path d="M3990 479 c0 -8 5 -31 11 -51 9 -33 14 -38 39 -38 34 0 34 1 19 53 -5 20 -16 37 -24 37 -7 0 -20 3 -29 6 -10 4 -16 1 -16 -7z" id="path290"/>
    <path d="M4093 474 c-4 -10 6 -27 25 -47 l31 -30 6 25 c4 15 2 36 -5 47 -13 25 -48 28 -57 5z" id="path292"/>
    <path d="M3446 464 c-12 -30 -6 -75 10 -81 22 -8 41 15 49 60 7 36 6 37 -23 37 -18 0 -32 -6 -36 -16z" id="path294"/>
    <path style="fill:#d76cff" d="" id="path3728" transform="matrix(8,0,0,-8,0,10110)"/>
    <path style="fill:#0084c8" d="" id="path3766" transform="matrix(8,0,0,-8,0,10110)"/>
    <path style="fill:#0084c8" d="" id="path3792" transform="matrix(8,0,0,-8,0,10110)"/>
    <path style="fill:#0084c8" d="m 418.50123,468.47131 c -0.0598,-0.0452 -0.082,-0.083 -0.0494,-0.084 0.0326,-9.8e-4 0.10819,0.0352 0.16797,0.0804 0.0598,0.0452 0.082,0.083 0.0494,0.084 -0.0326,9.8e-4 -0.1082,-0.0352 -0.16798,-0.0804 z" id="path3794" transform="matrix(8,0,0,-8,0,10110)"/>
    <path style="fill:#0084c8" d="" id="path3796" transform="matrix(8,0,0,-8,0,10110)"/>
  </g>
  <path d="M -429.557 143.479 Z" style="stroke: black; fill: none;"/>
  <path d="M -429.557 143.479 Z" style="stroke: black; fill: none;"/>
  <path d="M 100.76 259.713 Z" style="stroke: black; fill: none;"/>
</svg>